<?xml version="1.0" encoding="iso-8859-1"?>
<!-- Generator: Adobe Illustrator 19.0.0, SVG Export Plug-In . SVG Version: 6.00 Build 0)  -->
<svg version="1.1" id="Layer_1" xmlns="http://www.w3.org/2000/svg" xmlns:xlink="http://www.w3.org/1999/xlink" x="0px" y="0px"
	 viewBox="0 0 512.001 512.001" style="enable-background:new 0 0 512.001 512.001;" xml:space="preserve">
<g>
	<polygon style="fill:#F7B239;" points="189.417,475.282 189.417,503.614 164.26,503.614 162.785,476.501 	"/>
	<polygon style="fill:#F7B239;" points="392.071,473.025 392.071,503.614 366.903,503.614 365.037,474.277 365.048,474.277 	"/>
	<polygon style="fill:#F7B239;" points="77.021,363.78 76.898,392.089 48.254,397.397 47.695,369.211 	"/>
	<polygon style="fill:#F7B239;" points="341.019,474.087 339.142,503.614 313.985,503.614 313.985,473.025 	"/>
</g>
<g>
	<path style="fill:#CCCCCC;" d="M346.987,380.197l-5.968,93.889l-27.035-1.062v-98.304
		C322.568,378.096,333.409,380.365,346.987,380.197z"/>
	<path style="fill:#CCCCCC;" d="M114.963,317.701l-37.719-3.8l-0.089,18.977l-0.134,30.902l-29.326,5.432l-0.581-29.069
		l-1.129-56.819l65.994-4.806C111.353,292.175,112.102,305.598,114.963,317.701z"/>
</g>
<path style="fill:#F2F2F2;" d="M189.417,367.054v108.228l-26.632,1.218l-6.091-112.263c6.84,1.922,14.618,2.95,23.458,2.95
	C183.282,367.189,186.366,367.144,189.417,367.054z"/>
<path style="fill:#F7B239;" d="M337.633,243.348c0.346,2.246,0.536,4.549,0.536,6.896c0,24.352-19.748,44.1-44.112,44.1
	c-24.352,0-44.1-19.748-44.1-44.1c0-0.805,0.022-1.576,0.045-2.358C275.606,249.64,307.961,247.069,337.633,243.348z"/>
<path style="fill:#F95428;" d="M371.429,243.906c0.168,2.09,0.246,4.202,0.246,6.337c0,42.86-34.757,77.617-77.617,77.617
	s-77.617-34.757-77.617-77.617c0-3.487,0.224-6.907,0.682-10.26l0.112,1.386c8.304,3.587,19.647,5.61,32.768,6.516
	c-0.022,0.782-0.045,1.553-0.045,2.358c0,24.352,19.748,44.1,44.1,44.1c24.364,0,44.112-19.748,44.112-44.1
	c0-2.347-0.19-4.649-0.536-6.896c3.677-0.458,7.298-0.939,10.874-1.431C356.576,240.811,364.332,241.604,371.429,243.906z"/>
<g>
	<path style="fill:#F2F2F2;" d="M71.891,180.606l10.64,18.63c-9.678,11.444-27.169,12.238-37.674,1.542
		c-3.174-3.241-5.733-6.829-7.767-10.26c-4.582-7.756-2.213-17.68,5.197-22.81c5.454-3.777,10.584-7.823,15.4-11.992L71.891,180.606
		z"/>
	<path style="fill:#F2F2F2;" d="M146.893,125.128c0.57,12.394-1.71,27.973-10.45,46.034c0,0,0,0-0.011,0.011l-45.319,21.458
		c-3.297,1.565-6.225,3.822-8.583,6.605l-10.64-18.63h0.011L146.893,125.128z"/>
	<path style="fill:#F2F2F2;" d="M146.893,125.128l-74.991,55.477h-0.011l-14.205-24.889c15.311-13.288,27.336-27.929,35.707-39.574
		c9.12-12.674,13.914-21.804,13.914-21.804l18.496-1.498c3.867-0.313,7.689-0.346,11.444-0.112v0.011
		C137.248,92.74,145.976,104.564,146.893,125.128z"/>
	<path style="fill:#F2F2F2;" d="M146.893,125.128c-0.916-20.564-9.645-32.388-9.645-32.388v-0.011
		c38.904,2.414,71.113,33.204,74.186,73.214l4.068,52.929l1.621,21.111c-0.458,3.353-0.682,6.773-0.682,10.26
		c-45.665,26.643-78.846,14.652-100.751-4.37c6.896-39.697,20.463-73.985,20.743-74.7c0.011-0.011,0.011-0.011,0.011-0.011
		C145.183,153.102,147.463,137.522,146.893,125.128z"/>
	<path style="fill:#F2F2F2;" d="M189.417,367.054c-3.051,0.089-6.136,0.134-9.265,0.134c-8.84,0-16.619-1.028-23.458-2.95
		c-24.118-6.728-36.478-24.431-41.731-46.537c-2.861-12.104-3.61-25.526-2.984-39.183c0.492-10.908,1.855-21.972,3.71-32.645
		c21.905,19.021,55.086,31.013,100.751,4.37c0,42.86,34.757,77.617,77.617,77.617s77.617-34.757,77.617-77.617
		c0-2.135-0.078-4.247-0.246-6.337c5.197,1.676,10.036,4.169,14.361,7.32c5.04,3.655,9.388,8.203,12.83,13.389
		c5.431,8.17,8.583,17.926,8.583,28.331c0,3.442-0.335,6.94-1.062,10.483c-9.354,45.922-14.071,92.671-14.071,139.532v30.063
		l-27.023,1.252h-0.011l-6.024-94.806c-4.236,0.447-8.237,0.682-12.025,0.726c-13.579,0.168-24.419-2.101-33.003-5.476
		c-22.888-8.997-29.773-25.895-29.773-25.895C258.049,358.505,226.287,365.97,189.417,367.054z"/>
</g>
<path style="fill:#E6E6E6;" d="M196.928,364.238c-24.118-6.728-36.478-24.431-41.731-46.537c-2.861-12.104-3.61-25.526-2.984-39.183
	c0.492-10.908,1.855-21.972,3.71-32.645c6.896-39.697,20.463-73.985,20.743-74.7c0.011-0.011,0.011-0.011,0.011-0.011
	c8.74-18.06,11.02-33.64,10.45-46.034c-0.194-4.369-0.744-8.34-1.485-11.89c-13.039-11.845-29.962-19.366-48.393-20.509v0.011
	c0,0,8.728,11.824,9.645,32.388c0.57,12.394-1.71,27.973-10.45,46.034c0,0,0,0-0.011,0.011c-0.279,0.715-13.847,35.003-20.743,74.7
	c-1.855,10.673-3.219,21.737-3.71,32.645c-0.626,13.657,0.123,27.079,2.984,39.183c5.253,22.106,17.613,39.809,41.731,46.537
	c6.84,1.922,14.618,2.95,23.458,2.95c3.129,0,6.214-0.045,9.265-0.134c5.571-0.163,11.012-0.489,16.348-0.931
	C202.661,365.646,199.712,365.02,196.928,364.238z"/>
<path style="fill:#F7B239;" d="M492.141,253.775c4.85,14.395,6.381,26.588,6.381,26.588l-39.663,12.472
	c0,0-2.358-11.522-8.024-22.62L492.141,253.775z"/>
<path style="fill:#F95428;" d="M239.676,163.764l4.247,55.098h-28.309l-0.112,0.011l-4.068-52.929
	c-3.073-40.01-35.283-70.8-74.186-73.214c-3.755-0.235-7.577-0.201-11.444,0.112l-18.496,1.498L93.326,67.002l11.69-0.905
	l18.496-1.498c2.917-0.235,5.879-0.346,8.795-0.346c27.079,0,52.996,10.125,72.968,28.532
	C225.371,111.304,237.586,136.517,239.676,163.764z"/>
<path style="fill:#F7B239;" d="M93.326,67.002l13.981,27.336c0,0-4.794,9.131-13.914,21.804L69.812,93.701l23.503-26.699
	C93.315,67.002,93.326,67.002,93.326,67.002z"/>
<g>
	<path style="fill:#F95428;" d="M492.141,253.775l-41.306,16.44c-8.628-16.932-24.934-32.88-52.214-5.599
		c-3.442-5.186-7.79-9.734-12.83-13.389c0,0,15.266-43.385,59.467-43.385C471.32,207.842,485.178,233.077,492.141,253.775z"/>
	<polygon style="fill:#F95428;" points="63.341,8.384 93.326,67.002 93.315,67.002 69.812,93.701 13.485,40.113 	"/>
</g>
<path style="fill:#333333;" d="M506.836,279.325c-0.099-0.789-2.508-19.529-10.674-38.534
	c-11.62-27.044-29.223-41.338-50.908-41.338c-36.522,0-55.419,25.51-63.12,39.737c-10.565-5.256-22.551-7.258-34.767-5.578
	c-57.675,7.916-100.612,8.502-122.186,1.755l-0.625-8.124h19.362c2.335,0,4.564-0.975,6.15-2.687
	c1.587-1.713,2.386-4.01,2.207-6.338l-4.239-55.1c-2.26-29.375-15.43-56.541-37.082-76.497
	c-21.518-19.832-49.45-30.754-78.652-30.754c-3.202,0-6.39,0.127-9.469,0.379l-18.466,1.493l-6.126,0.475L70.808,4.565
	c-1.075-2.101-2.985-3.652-5.262-4.271c-2.278-0.619-4.711-0.25-6.701,1.016L8.981,33.042c-2.176,1.385-3.593,3.694-3.842,6.261
	c-0.249,2.567,0.696,5.106,2.565,6.883l74.515,70.894c-10.6,13.854-25.716,30.583-44.704,43.736
	c-11.026,7.638-14.382,22.56-7.641,33.972c2.646,4.48,5.675,8.471,9.002,11.861c6.605,6.732,15.842,10.4,25.292,10.044
	c5.414-0.199,10.655-1.697,15.307-4.28c4.959,9.486,13.872,24.009,27.182,36.597c-1.121,7.125-2.014,14.398-2.575,21.68
	l-58.707,4.275c-4.446,0.324-7.86,4.07-7.771,8.526l2.264,114.072c0.049,2.461,1.177,4.775,3.085,6.331
	c1.508,1.229,3.382,1.887,5.296,1.887c0.507,0,1.018-0.047,1.526-0.14l28.65-5.304c3.96-0.733,6.839-4.178,6.856-8.204l0.302-68.966
	l22.843,2.306c2.325,7.738,5.548,14.933,9.875,21.318c7.504,11.069,17.665,18.953,30.335,23.646l7.252,133.637
	c0.241,4.447,3.917,7.928,8.37,7.928h25.166c4.63,0,8.382-3.753,8.382-8.382V375.079c28.469-1.568,56.176-6.926,82.651-16.015
	c4.163,6.077,11.958,14.816,25.143,21.212v123.342c0,4.629,3.752,8.382,8.382,8.382h25.166c4.423,0,8.085-3.437,8.365-7.85
	l5.513-86.779l5.518,86.78c0.282,4.413,3.943,7.85,8.365,7.85h25.166c4.63,0,8.382-3.753,8.382-8.382v-60.652
	c0-46.204,4.676-92.585,13.898-137.859c2.756-13.527,0.885-27.054-5.1-38.893c6.102-5.134,13.432-9.336,19.792-7.436
	c12.342,3.688,19.918,27.644,21.596,35.735c0.477,2.323,1.916,4.336,3.96,5.541c1.302,0.767,2.772,1.159,4.252,1.159
	c0.844,0,1.692-0.127,2.513-0.386l39.665-12.466C504.896,287.146,507.338,283.344,506.836,279.325z M349.647,250.221
	c4.637-0.636,9.222-0.523,13.64,0.265c-0.135,38.062-31.136,68.987-69.23,68.987c-37.363,0-67.888-29.755-69.173-66.811
	c5.005,1.245,10.651,2.216,16.954,2.904c2.679,26.449,25.076,47.16,52.219,47.16c28.808,0,52.262-23.33,52.479-52.088
	C347.574,250.499,348.6,250.365,349.647,250.221z M145.379,253.893c-7.675-2.654-14.528-6.685-20.575-11.407
	c4.865-25.478,12.277-48.31,16.395-59.993c1.562-4.43,5.135-12.748,6.082-15.055c11.473-27.978,8.713-50.061,4.259-63.823
	c9.751,2.748,18.881,7.586,26.819,14.362c14.481,12.361,23.261,29.621,24.72,48.603l5.63,73.2c-0.224,1.788-0.39,3.609-0.496,5.455
	C185.461,257.528,164.339,260.45,145.379,253.893z M84.892,186.463l-2.025-3.546l54.418-40.256
	c-1.265,6.761-3.534,14.195-7.179,22.23C130.107,164.89,85.747,185.962,84.892,186.463z M329.685,252.747
	c-1.293,18.532-16.773,33.216-35.627,33.216c-17.491,0-32.077-12.64-35.127-29.264C278.185,257.282,301.804,255.965,329.685,252.747
	z M124.191,72.958c2.633-0.215,5.363-0.324,8.113-0.324c24.981,0,48.877,9.346,67.29,26.317
	c18.526,17.074,29.794,40.321,31.73,65.455l3.544,46.074h-11.6l-3.476-45.184c-1.804-23.459-12.653-44.793-30.55-60.069
	c-17.897-15.275-40.663-22.638-64.121-20.739l-12.909,1.047l-5.712-11.17L124.191,72.958z M60.075,20.397l23.189,45.346
	L69.279,81.629l-42.253-40.2L60.075,20.397z M81.433,93.193l10.036-11.401l6.313,12.345c-1.314,2.232-3.229,5.363-5.736,9.153
	L81.433,93.193z M112.432,102.336l14.045-1.139c1.988-0.162,3.969-0.221,5.941-0.219c1.951,3.764,4.775,10.622,5.815,20.13
	l-63.735,47.148l-6.177-10.817C91.885,135.606,106.953,111.757,112.432,102.336z M63.549,199.939
	c-4.859,0.181-9.35-1.609-12.709-5.033c-2.377-2.423-4.577-5.332-6.535-8.647c-2.293-3.883-1.084-9.006,2.754-11.663
	c2.844-1.97,5.595-4.013,8.27-6.1l16.529,28.949C69.366,198.95,66.511,199.83,63.549,199.939z M92.697,201.349
	c0.643-0.417,29.088-13.968,29.088-13.968c-3.507,10.745-7.755,25.165-11.281,41.263C101.625,218.217,95.713,207.492,92.697,201.349
	z M56.436,387.357l-0.222-11.197l12.383-2.292l-0.049,11.246L56.436,387.357z M78.08,305.559c-2.351-0.24-4.694,0.53-6.45,2.11
	c-1.756,1.581-2.764,3.831-2.773,6.194l-0.187,42.944l-12.794,2.368l-1.353-68.069l48.906-3.562
	c0.018,7.046,0.435,13.993,1.343,20.709L78.08,305.559z M172.196,495.236l-0.583-10.749l9.427-0.428v11.178h-8.844V495.236z
	 M181.04,467.277l-10.336,0.469l-5.054-93.129c4.597,0.63,9.425,0.958,14.5,0.958c0.297,0,0.592-0.008,0.89-0.009V467.277z
	 M338.068,388.369l-4.893,77.017l-10.813-0.425v-78.84C327.13,387.219,332.352,388.003,338.068,388.369z M322.361,495.236v-13.498
	l9.75,0.383l-0.834,13.115L322.361,495.236L322.361,495.236z M374.773,495.236l-0.826-12.979l9.743-0.455v13.433L374.773,495.236
	L374.773,495.236z M397.927,301.761c-9.447,46.371-14.236,93.879-14.236,141.205v22.055l-10.807,0.504l-5.506-86.582
	c-0.144-2.281-1.215-4.403-2.962-5.876s-4.023-2.17-6.293-1.926c-52.143,5.577-65.626-24.28-66.145-25.479
	c-1.708-4.189-6.43-6.267-10.671-4.698c-32.012,11.843-66.047,17.849-101.157,17.849c-22.502,0-38.193-7.006-47.967-21.42
	c-12.932-19.067-13.925-48.119-10.334-76.45c5.471,3.491,11.444,6.5,17.944,8.759c8.462,2.94,17.188,4.408,26.147,4.408
	c13.862,0,28.285-3.526,43.157-10.536c6.427,41.11,42.075,72.665,84.96,72.665c45.067,0,82.123-34.853,85.692-79.017
	c2.624,1.79,5.088,3.877,7.335,6.274C396.815,273.873,400.766,287.821,397.927,301.761z M433.879,242.726
	c-10.79-3.238-22.276,0.037-34.223,9.688c-0.116-0.126-0.222-0.259-0.341-0.386c-1.056-1.127-2.157-2.188-3.278-3.221
	c5.292-10.356,20.049-32.59,49.217-32.59c14.592,0,26.495,10.396,35.378,30.897c0.274,0.631,0.54,1.264,0.799,1.895l-26.942,10.723
	C449.492,252.108,442.764,245.394,433.879,242.726z M464.713,282.203c-0.698-2.247-1.567-4.781-2.616-7.453l24.659-9.814
	c0.983,3.662,1.727,6.965,2.262,9.629L464.713,282.203z"/>
</svg>
